<svg xmlns="http://www.w3.org/2000/svg" data-name="Layer 1" viewBox="0 0 101 101"><path d="M93.5 53H86V40.5a1.5 1.5 0 0 0-1.5-1.5H61V26.5a1.5 1.5 0 0 0-1.5-1.5h-51A1.5 1.5 0 0 0 7 26.5v47A1.5 1.5 0 0 0 8.5 75h11.42a7.65 7.65 0 0 0 15.21 0h33.55a7.66 7.66 0 0 0 15.23 0h9.59a1.5 1.5 0 0 0 1.5-1.5v-19a1.5 1.5 0 0 0-1.5-1.5Zm-66 25.84a4.66 4.66 0 1 1 4.64-4.65 4.66 4.66 0 0 1-4.6 4.65Zm0-12.31A7.67 7.67 0 0 0 20.2 72H10V28h48v44H34.86a7.66 7.66 0 0 0-7.32-5.47Zm48.79 12.31a4.66 4.66 0 1 1 4.66-4.65 4.66 4.66 0 0 1-4.66 4.65ZM92 72h-8.37A7.65 7.65 0 0 0 69 72h-8V42h22v12.5a1.5 1.5 0 0 0 1.5 1.5H92Z"/><path d="M16.5 43H47l-5 5a1.5 1.5 0 1 0 2.12 2.12l6.73-6.73a1.5 1.5 0 0 0 0-2.12l-6.73-6.73A1.5 1.5 0 0 0 42 36.7l3.3 3.3H16.5a1.5 1.5 0 0 0 0 3ZM49 57.5a1.5 1.5 0 0 0-1.5-1.5H17.1l4.9-4.89A1.5 1.5 0 1 0 19.86 49l-6.73 6.73a1.5 1.5 0 0 0 0 2.12l6.73 6.73A1.5 1.5 0 0 0 22 62.45L18.54 59h29A1.5 1.5 0 0 0 49 57.5Z"/></svg>