<svg xmlns="http://www.w3.org/2000/svg" xml:space="preserve" style="enable-background:new 0 0 100.353 100.352" viewBox="0 0 100.353 100.352"><path d="M41.779 73.231c7.675 0 13.92-6.245 13.92-13.92s-6.245-13.92-13.92-13.92-13.92 6.245-13.92 13.92 6.245 13.92 13.92 13.92zm0-24.84c6.021 0 10.92 4.898 10.92 10.92s-4.898 10.92-10.92 10.92-10.92-4.898-10.92-10.92 4.898-10.92 10.92-10.92zM10.985 46.891h3v24.84h-3zM69.102 46.891h3v24.84h-3z"/><path d="M96.683 19.21H20.434v8.898h-8.201v9.726H3.318v42.954h76.249v-9.726h8.915v-8.898h8.2V19.21h.001zM76.567 77.788H6.318V40.834h70.249v36.954zm8.915-9.725h-5.915V37.834H15.233v-6.726h70.25l-.001 36.955zm8.201-8.899h-5.2V28.108H23.434V22.21h70.249v36.954z"/></svg>