<svg xmlns="http://www.w3.org/2000/svg" xml:space="preserve" id="Layer_1" x="0" y="0" style="enable-background:new 0 0 50 50" version="1.1" viewBox="0 0 50 50"><style>.st0{display:none}.st1{display:inline}.st3{stroke-linecap:round;stroke-linejoin:round}.st3,.st5,.st6,.st7{fill:none;stroke:#000;stroke-width:2;stroke-miterlimit:10}.st6,.st7{display:inline}.st7{stroke-linecap:round;stroke-linejoin:round}</style><path d="M38.4 47c0-6.6-4.6-12-10.8-13.4v-3.4c2.3-1.1 3.9-3.4 3.9-6.2v-3.4c0-3.8-3.1-6.8-6.8-6.8-3.8 0-6.8 3.1-6.8 6.8V24c0 2.7 1.6 5 3.8 6.1v3.5C15.6 35 11.1 40.5 11.1 47h27.3z" class="st5"/><path d="M31.6 18.6c1-.6 2-1.1 3.2-1.3v-2.6c-1.7-.8-2.9-2.6-2.9-4.6V7.5c0-2.8 2.3-5.2 5.2-5.2 2.8 0 5.2 2.3 5.2 5.2v2.6c0 2.1-1.2 3.8-3 4.6v2.6c4.7 1 8.1 5.1 8.1 10.1H30.7M18.2 18.6c-1-.6-2.1-1.1-3.2-1.3v-2.6c1.7-.8 3-2.6 3-4.6V7.5c0-2.8-2.3-5.2-5.2-5.2-2.8 0-5.2 2.3-5.2 5.2v2.6c0 2 1.2 3.7 2.9 4.6v2.6c-4.6 1-8 5.1-8 10.1h15.7" class="st5"/></svg>