<svg xmlns="http://www.w3.org/2000/svg" aria-hidden="true" style="position:absolute;width:0;height:0;overflow:hidden"><defs><symbol id="icon-car" viewBox="0 0 32 32"><path d="M29.624 16.792h-2.376v-3.96a.475.475 0 0 0-.475-.475h-7.446v-3.96a.475.475 0 0 0-.475-.475H2.694a.475.475 0 0 0-.475.475v14.891c0 .262.213.475.475.475h3.618a2.424 2.424 0 0 0 4.818.011l.001-.011h10.63a2.428 2.428 0 0 0 4.825.011l.001-.011h3.038a.475.475 0 0 0 .475-.475v-6.02a.475.475 0 0 0-.475-.475zM8.713 24.979h-.006a1.476 1.476 0 1 1 1.476-1.476v.003a1.476 1.476 0 0 1-1.456 1.473h-.001zm0-3.9a2.43 2.43 0 0 0-2.308 1.716l-.005.017H3.168V8.871h15.208v13.941h-7.332a2.432 2.432 0 0 0-2.319-1.733zm15.458 3.9a1.476 1.476 0 1 1 1.476-1.476v.003a1.476 1.476 0 0 1-1.476 1.473zm4.977-2.167h-2.652c-.313-1.001-1.232-1.714-2.318-1.714s-2.004.714-2.313 1.697l-.005.017h-2.535v-9.505h6.97v3.96c0 .262.213.475.475.475h2.376z"/><path d="M5.228 13.624h9.663l-1.584 1.584a.475.475 0 1 0 .671.672l2.132-2.132a.474.474 0 0 0 0-.672l-2.132-2.132a.48.48 0 1 0-.671.684l1.046 1.046H5.228a.475.475 0 0 0 0 .95zM15.525 18.218a.475.475 0 0 0-.475-.475H5.418l1.552-1.549a.476.476 0 1 0-.678-.668L4.16 17.658a.474.474 0 0 0 0 .672l2.132 2.132a.479.479 0 0 0 .678-.674l-1.096-1.093h9.188a.476.476 0 0 0 .463-.475z"/></symbol><symbol id="icon-cash" viewBox="0 0 32 32"><path d="M13.322 23.352c2.447 0 4.439-1.991 4.439-4.439s-1.991-4.439-4.439-4.439-4.439 1.991-4.439 4.439 1.991 4.439 4.439 4.439zm0-7.921c1.92 0 3.482 1.562 3.482 3.482s-1.562 3.482-3.482 3.482-3.482-1.562-3.482-3.482 1.562-3.482 3.482-3.482zM3.503 14.953h.957v7.921h-.957v-7.921zM22.035 14.953h.957v7.921h-.957v-7.921z"/><path d="M30.83 6.126H6.516v2.837H3.901v3.101H1.058v13.697h24.314V22.66h2.843v-2.837h2.615V6.126zm-6.414 18.679H2.015V13.021h22.401v11.784zm2.842-3.101h-1.886v-9.639H4.857V9.92h22.401v11.784zm2.615-2.838h-1.658V8.963H7.472V7.082h22.401v11.784z"/></symbol><symbol id="icon-cross" viewBox="0 0 32 32"><path d="M6.4 11.733V9.6h19.2v2.133H6.4zm0 5.334h19.2v-2.133H6.4v2.133zm0 5.333h19.2v-2.133H6.4V22.4z"/></symbol><symbol id="icon-done" viewBox="0 0 32 32"><path fill="#1f5bff" d="M16.064.608C7.52.608.544 7.584.544 16.128s6.976 15.52 15.52 15.52 15.488-6.976 15.52-15.52c0-8.544-6.976-15.52-15.52-15.52zm-2.336 22.848-6.464-6.432 1.344-1.376 5.056 5.024L23.936 9.344l1.408 1.28-11.616 12.832z" style="fill:var(--color1, #1f5bff)"/></symbol><symbol id="icon-gift" viewBox="0 0 32 32"><path stroke-miterlimit="10" stroke-width="1.28" d="M28.736 12.992v18.432H3.2V12.992M.96 5.888h30.016v7.104H.96V5.888zM15.936 5.888v25.536M9.792 5.888C8.32 4.48 7.808 2.624 8.64 1.6c.896-1.216 3.2-.96 5.12.512 1.344 1.024 2.176 2.432 2.176 3.584M22.144 5.888C23.616 4.48 24.128 2.624 23.36 1.6c-.896-1.216-3.2-.96-5.12.512C16.832 3.2 16 4.736 16.064 5.888"/></symbol><symbol id="icon-menu" viewBox="0 0 32 32"><path d="M23.733 10.304 22.229 8.8l-5.963 5.963L10.303 8.8l-1.504 1.504 5.963 5.963-5.963 5.963 1.504 1.504 5.963-5.963 5.963 5.963 1.504-1.504-5.963-5.963 5.963-5.963z"/></symbol><symbol id="icon-people" viewBox="0 0 32 32"><path stroke-miterlimit="10" stroke-width="1.28" d="M24.576 30.08c0-4.224-2.944-7.68-6.912-8.576v-2.176a4.354 4.354 0 0 0 2.496-3.968v-2.176c0-2.432-1.984-4.352-4.352-4.352-2.432 0-4.352 1.984-4.352 4.352v2.176c0 1.728 1.024 3.2 2.432 3.904v2.24c-3.904.896-6.784 4.416-6.784 8.576h17.472z"/><path stroke-miterlimit="10" stroke-width="1.28" d="M20.224 11.904c.64-.384 1.28-.704 2.048-.832V9.408a3.284 3.284 0 0 1-1.856-2.944V4.8c0-1.792 1.472-3.328 3.328-3.328 1.792 0 3.328 1.472 3.328 3.328v1.664c0 1.344-.768 2.432-1.92 2.944v1.664c3.008.64 5.184 3.264 5.184 6.464H19.648M11.648 11.904c-.64-.384-1.344-.704-2.048-.832V9.408c1.088-.512 1.92-1.664 1.92-2.944V4.8c0-1.792-1.472-3.328-3.328-3.328-1.792 0-3.328 1.472-3.328 3.328v1.664c0 1.28.768 2.368 1.856 2.944v1.664c-2.944.64-5.12 3.264-5.12 6.464h10.048"/></symbol><symbol id="icon-star" viewBox="0 0 32 32"><path stroke-miterlimit="10" stroke-width="1.28" d="m15.232 3.328-3.776 7.68-8.448 1.216a.905.905 0 0 0-.512 1.536l6.08 5.952-1.408 8.448c-.128.704.64 1.28 1.28.96l7.744-3.904 7.36 3.904a.89.89 0 0 0 1.28-.96l-1.472-8.384 6.08-5.952a.905.905 0 0 0-.512-1.536l-8.448-1.216-3.776-7.68c-.192-.704-1.152-.704-1.472-.064z"/></symbol><symbol id="icon-wfi" viewBox="0 0 32 32"><path stroke-linecap="round" stroke-linejoin="round" stroke-miterlimit="10" stroke-width="1.28" d="M18.496 25.536a2.305 2.305 0 1 1-4.61-.001 2.305 2.305 0 0 1 4.61.001zM9.088 19.84a8.847 8.847 0 0 1 7.104-3.584c2.816 0 5.312 1.28 6.912 3.328M4.736 15.68c2.752-3.328 6.848-5.44 11.456-5.44 4.48 0 8.512 1.984 11.264 5.12"/><path stroke-linecap="round" stroke-linejoin="round" stroke-miterlimit="10" stroke-width="1.28" d="M.96 11.84c3.712-4.224 9.152-6.912 15.232-6.912 5.952 0 11.328 2.624 15.04 6.72"/></symbol></defs></svg>