<!-- Generated by IcoMoon.io -->
<svg version="1.1" xmlns="http://www.w3.org/2000/svg" width="32" height="32" viewBox="0 0 32 32">
<title>car</title>
<path d="M29.624 16.792h-2.376v-3.96c0-0.262-0.213-0.475-0.475-0.475v0h-7.446v-3.96c0-0.262-0.213-0.475-0.475-0.475v0h-16.158c-0.262 0-0.475 0.213-0.475 0.475v0 14.891c0 0.262 0.213 0.475 0.475 0.475v0h3.618c0.137 1.221 1.163 2.161 2.409 2.161s2.273-0.94 2.409-2.15l0.001-0.011h10.63c0.137 1.223 1.165 2.164 2.413 2.164s2.276-0.942 2.412-2.153l0.001-0.011h3.038c0.262 0 0.475-0.213 0.475-0.475v0-6.020c0-0.262-0.213-0.475-0.475-0.475v0zM8.713 24.979c-0.002 0-0.004 0-0.006 0-0.815 0-1.476-0.661-1.476-1.476s0.661-1.476 1.476-1.476c0.815 0 1.476 0.661 1.476 1.476 0 0.001 0 0.002 0 0.003v-0c-0.002 0.807-0.651 1.463-1.456 1.473h-0.001zM8.713 21.079c-1.087 0.007-2.005 0.727-2.308 1.716l-0.005 0.017h-3.232v-13.941h15.208v13.941h-7.332c-0.308-1.009-1.229-1.73-2.319-1.733h-0zM24.171 24.979c-0.815 0-1.476-0.661-1.476-1.476s0.661-1.476 1.476-1.476c0.815 0 1.476 0.661 1.476 1.476 0 0.001 0 0.002 0 0.003v-0c-0.002 0.814-0.662 1.473-1.476 1.473 0 0 0 0 0 0v0zM29.148 22.812h-2.652c-0.313-1.001-1.232-1.714-2.318-1.714s-2.004 0.714-2.313 1.697l-0.005 0.017h-2.535v-9.505h6.97v3.96c0 0.262 0.213 0.475 0.475 0.475v0h2.376z"></path>
<path d="M5.228 13.624h9.663l-1.584 1.584c-0.093 0.087-0.151 0.211-0.151 0.348 0 0.262 0.213 0.475 0.475 0.475 0.137 0 0.261-0.058 0.347-0.151l0-0 2.132-2.132c0.086-0.086 0.139-0.205 0.139-0.336s-0.053-0.25-0.139-0.336v0l-2.132-2.132c-0.086-0.085-0.205-0.137-0.336-0.137-0.265 0-0.479 0.215-0.479 0.479 0 0.134 0.055 0.255 0.144 0.342l1.046 1.046h-9.125c-0.262 0-0.475 0.213-0.475 0.475s0.213 0.475 0.475 0.475v0z"></path>
<path d="M15.525 18.218c0-0.262-0.213-0.475-0.475-0.475v0h-9.632l1.552-1.549c0.085-0.086 0.137-0.204 0.137-0.334 0-0.263-0.213-0.476-0.476-0.476-0.133 0-0.253 0.054-0.339 0.142l-2.132 2.132c-0.086 0.086-0.139 0.205-0.139 0.336s0.053 0.25 0.139 0.336v0l2.132 2.132c0.087 0.087 0.207 0.141 0.339 0.141 0.264 0 0.478-0.214 0.478-0.478 0-0.132-0.053-0.251-0.139-0.337l0 0-1.096-1.093h9.188c0.257-0.007 0.463-0.217 0.463-0.475 0-0 0-0 0-0v0z"></path>
</svg>
