<!-- Generated by IcoMoon.io -->
<svg version="1.1" xmlns="http://www.w3.org/2000/svg" width="32" height="32" viewBox="0 0 32 32">
<title>cash</title>
<path d="M13.322 23.352c2.447 0 4.439-1.991 4.439-4.439s-1.991-4.439-4.439-4.439-4.439 1.991-4.439 4.439 1.991 4.439 4.439 4.439zM13.322 15.431c1.92 0 3.482 1.562 3.482 3.482s-1.562 3.482-3.482 3.482-3.482-1.562-3.482-3.482 1.562-3.482 3.482-3.482z"></path>
<path d="M3.503 14.953h0.957v7.921h-0.957v-7.921z"></path>
<path d="M22.035 14.953h0.957v7.921h-0.957v-7.921z"></path>
<path d="M30.83 6.126h-24.314v2.837h-2.615v3.101h-2.843v13.697h24.314v-3.101h2.843v-2.837h2.615v-13.697h0zM24.416 24.805h-22.401v-11.784h22.401v11.784zM27.258 21.704h-1.886v-9.639h-20.515v-2.145h22.401l-0 11.784zM29.873 18.866h-1.658v-9.903h-20.743v-1.881h22.401v11.784z"></path>
</svg>
