<!-- Generated by IcoMoon.io -->
<svg version="1.1" xmlns="http://www.w3.org/2000/svg" width="32" height="32" viewBox="0 0 32 32">
<title>people</title>
<path fill="none" stroke-linejoin="miter" stroke-linecap="butt" stroke-miterlimit="10" stroke-width="1.28" stroke="#000" d="M24.576 30.080c0-4.224-2.944-7.68-6.912-8.576v-2.176c1.472-0.704 2.496-2.176 2.496-3.968 0-0.384 0-1.792 0-2.176 0-2.432-1.984-4.352-4.352-4.352-2.432 0-4.352 1.984-4.352 4.352 0 0.384 0 1.792 0 2.176 0 1.728 1.024 3.2 2.432 3.904v2.24c-3.904 0.896-6.784 4.416-6.784 8.576h17.472z"></path>
<path fill="none" stroke-linejoin="miter" stroke-linecap="butt" stroke-miterlimit="10" stroke-width="1.28" stroke="#000" d="M20.224 11.904c0.64-0.384 1.28-0.704 2.048-0.832v-1.664c-1.088-0.512-1.856-1.664-1.856-2.944 0-0.256 0-1.344 0-1.664 0-1.792 1.472-3.328 3.328-3.328 1.792 0 3.328 1.472 3.328 3.328 0 0.256 0 1.344 0 1.664 0 1.344-0.768 2.432-1.92 2.944v1.664c3.008 0.64 5.184 3.264 5.184 6.464h-10.688"></path>
<path fill="none" stroke-linejoin="miter" stroke-linecap="butt" stroke-miterlimit="10" stroke-width="1.28" stroke="#000" d="M11.648 11.904c-0.64-0.384-1.344-0.704-2.048-0.832v-1.664c1.088-0.512 1.92-1.664 1.92-2.944 0-0.256 0-1.344 0-1.664 0-1.792-1.472-3.328-3.328-3.328-1.792 0-3.328 1.472-3.328 3.328 0 0.256 0 1.344 0 1.664 0 1.28 0.768 2.368 1.856 2.944v1.664c-2.944 0.64-5.12 3.264-5.12 6.464h10.048"></path>
</svg>
