<!-- Generated by IcoMoon.io -->
<svg version="1.1" xmlns="http://www.w3.org/2000/svg" width="32" height="32" viewBox="0 0 32 32">
<title>wfi</title>
<path fill="none" stroke-linejoin="round" stroke-linecap="round" stroke-miterlimit="10" stroke-width="1.28" stroke="#000" d="M18.496 25.536c0 1.272-1.032 2.304-2.304 2.304s-2.304-1.032-2.304-2.304c0-1.272 1.032-2.304 2.304-2.304s2.304 1.032 2.304 2.304z"></path>
<path fill="none" stroke-linejoin="round" stroke-linecap="round" stroke-miterlimit="10" stroke-width="1.28" stroke="#000" d="M9.088 19.84c1.6-2.176 4.224-3.584 7.104-3.584 2.816 0 5.312 1.28 6.912 3.328"></path>
<path fill="none" stroke-linejoin="round" stroke-linecap="round" stroke-miterlimit="10" stroke-width="1.28" stroke="#000" d="M4.736 15.68c2.752-3.328 6.848-5.44 11.456-5.44 4.48 0 8.512 1.984 11.264 5.12"></path>
<path fill="none" stroke-linejoin="round" stroke-linecap="round" stroke-miterlimit="10" stroke-width="1.28" stroke="#000" d="M0.96 11.84c3.712-4.224 9.152-6.912 15.232-6.912 5.952 0 11.328 2.624 15.040 6.72"></path>
</svg>
